<svg width="49" height="48" viewBox="0 0 49 48" fill="none" xmlns="http://www.w3.org/2000/svg">
<path d="M27.6783 31.0658C27.3269 31.0658 27.0628 30.9786 26.886 30.804C26.7114 30.6317 26.6242 30.3732 26.6242 30.0285V25.9263C26.6242 25.5794 26.7114 25.3198 26.886 25.1475C27.0628 24.9729 27.3269 24.8857 27.6783 24.8857H33.4858C33.8394 24.8857 34.1035 24.9729 34.2781 25.1475C34.4526 25.3221 34.5399 25.5817 34.5399 25.9263V30.0285C34.5399 30.3732 34.4526 30.6317 34.2781 30.804C34.1035 30.9786 33.8394 31.0658 33.4858 31.0658H27.6783Z" fill="#787878"/>
<path d="M14.4018 34.7298C13.1752 34.7298 12.2534 34.4251 11.6362 33.8158C11.0268 33.2142 10.7221 32.3119 10.7221 31.1087L10.7221 16.7884C10.7221 15.5775 11.0268 14.6712 11.6362 14.0697C12.2534 13.4603 13.1752 13.1556 14.4018 13.1556L34.6752 13.1556C35.9096 13.1556 36.8315 13.4603 37.4409 14.0697C38.0502 14.679 38.3549 15.5853 38.3549 16.7884V31.1087C38.3549 32.3119 38.0502 33.2142 37.4409 33.8158C36.8315 34.4251 35.9096 34.7298 34.6752 34.7298H14.4018ZM14.4252 32.8431H34.6518C35.2299 32.8431 35.6752 32.6908 35.9877 32.3861C36.308 32.0736 36.4682 31.6126 36.4682 31.0033V16.8939C36.4682 16.2845 36.308 15.8236 35.9877 15.5111C35.6752 15.1986 35.2299 15.0423 34.6518 15.0423L14.4252 15.0423C13.8393 15.0423 13.3901 15.1986 13.0776 15.5111C12.7651 15.8236 12.6088 16.2845 12.6088 16.8939V31.0033C12.6088 31.6126 12.7651 32.0736 13.0776 32.3861C13.3901 32.6908 13.8393 32.8431 14.4252 32.8431Z" fill="#787878"/>
</svg>
